<?xml version="1.0" encoding="UTF-8"?><svg id="a" xmlns="http://www.w3.org/2000/svg" viewBox="0 0 884.93 522.27"><defs><style>.b{fill:#0068ff;}</style></defs><path class="b" d="M801.36,13.99l-83.5,375.36c-17.2,47.33-36.76,51.34-53.79,51.34-11.59,0-35.49,0-53.59-50.73l-62.8-318.16-1.5-3.66C528.46,24.83,492.39,0,447.21,0c-31.58,0-74.32,11.67-98.6,67.25l-1.78,4.07-62.9,318.64c-18.09,50.73-42.01,50.73-53.59,50.73-22.12,0-34.84-5.25-54.14-52.58L84.03,13.99H0L97.68,410.44l.68,2.76,1.05,2.64c13.82,34.55,42.59,106.44,130.93,106.44,43.16,0,101.03-18.81,131.66-108.4l.89-2.6,62.18-315.03c6.19-12.52,11.9-14.66,22.14-14.66,8.01,0,15.72,1.16,22.06,14.3l62.25,315.39,.89,2.6c30.63,89.59,88.5,108.4,131.65,108.4,62.06,0,106.31-36.35,131.54-108.05l.81-2.3L884.93,13.99h-83.57Z"/></svg>