<svg viewBox="0 0 1364.31 347.54" xmlns="http://www.w3.org/2000/svg"><g fill="#0068ff"><path d="m329.12 42.98-34.29 154.16c-7.06 19.44-15.1 21.09-22.09 21.09-4.76 0-14.58 0-22.01-20.83l-25.79-130.67-.62-1.51c-7.28-17.78-22.09-27.98-40.65-27.98-12.97 0-30.52 4.79-40.49 27.62l-.73 1.67-25.83 130.86c-7.43 20.84-17.25 20.83-22.01 20.83-9.08 0-14.31-2.16-22.23-21.6l-37.87-153.64h-34.51l40.12 162.82.28 1.13.43 1.08c5.68 14.19 17.49 43.71 53.77 43.71 17.72 0 41.49-7.72 54.07-44.52l.37-1.07 25.54-129.38c2.54-5.14 4.89-6.02 9.09-6.02 3.29 0 6.45.47 9.06 5.87l25.57 129.53.37 1.07c12.58 36.79 36.35 44.52 54.07 44.52 25.49 0 43.66-14.93 54.02-44.38l.33-.94 36.35-163.43h-34.32z"/><path d="m444.78 199.26-26.08 52.16h-39.27l108.13-208.35h37.8l109.89 208.36h-38.68l-26.96-52.16h-124.84zm14.95-29.89h94.65l-48.06-93.19z"/><path d="m701.77 43.07h36.63v174.07h146.23v34.29h-182.86z"/><path d="m947.03 43.07h36.63v174.07h146.23v34.29h-182.86z"/><path d="m1199.63 164.98-95.53-121.91h44.54l70.62 92.31 76.48-92.31h44.25l-102.57 122.49v85.86h-37.8v-86.45z"/></g></svg>